<svg viewBox="0 0 32 32" fill="none" xmlns="http://www.w3.org/2000/svg">
  <rect x="2" y="2" width="28" height="28" rx="6" fill="#1a1a1a" stroke="#ffffff" stroke-width="2"/>
  <path d="M10 8C10 8 8 8 8 10V14C8 16 10 16 10 16C10 16 8 16 8 18V22C8 24 10 24 10 24" stroke="#ffffff" stroke-width="2" stroke-linecap="round" stroke-linejoin="round"/>
  <path d="M22 8C22 8 24 8 24 10V14C24 16 22 16 22 16C22 16 24 16 24 18V22C24 24 22 24 22 24" stroke="#ffffff" stroke-width="2" stroke-linecap="round" stroke-linejoin="round"/>
  <circle cx="16" cy="16" r="3" fill="#ffffff"/>
</svg>
